<?xml version="1.0" encoding="utf-8"?>
<!-- Generator: Adobe Illustrator 19.2.1, SVG Export Plug-In . SVG Version: 6.00 Build 0)  -->
<svg version="1.1" id="Layer_3__x2B__Layer_4__x2B__Layer_2_copy_2__x2B__Invert_1_xA0_Image_1_"
	 xmlns="http://www.w3.org/2000/svg" xmlns:xlink="http://www.w3.org/1999/xlink" x="0px" y="0px" viewBox="0 0 1107.1 397.2"
	 style="enable-background:new 0 0 1107.1 397.2;" xml:space="preserve">
<style type="text/css">
	.st0{fill:#FFFFFF;}
</style>
<path class="st0" d="M1107,388.8c-2-8.4-5.9-16.3-9.1-24.4c-0.4-1.1-1.8-2-2.9-2.6c-8.9-5.1-15.2-13.2-22.9-19.5
	c-13.1-10.8-26.3-21.9-42.2-28.8c-3.3-1.4-6.5-3.1-9.6-5c-2.1-1.3-4.6-2.7-5.5-4.8c-2.7-6.1-4.4-12.6-6.9-18.8
	c-1-2.4-2.7-5.1-4.9-6.4c-6.1-3.9-13.1-6.5-18.7-10.9c-7-5.4-12.8-12.3-19.5-18.1c-8.3-7-16.8-13.8-25.7-20.1
	c-8.4-6-16.9-12-26-16.7c-22.8-11.7-46-22.8-69.1-33.9c-7.6-3.6-15.4-6.8-23.4-9.3c-10.7-3.3-21.7-5.6-32.4-8.7
	c-14.7-4.2-28.6-10.5-43.9-12.9c-17.5-2.8-34.6-7.7-52.1-10.8c-15.4-2.7-31-4.8-46.6-6.3c-13.9-1.3-27.9-1.2-41.9-1.8
	c-23.7-1.2-47.3-2.9-71-3.6c-16.2-0.5-32.5-0.1-48.7,1c-20,1.4-40,3.1-59.9,6.1c-17.9,2.7-35.6,7.1-53.3,11
	c-12.4,2.7-24.6,5.9-36.9,8.7c-24,5.4-48.2,10.3-72.1,16.3c-10.9,2.7-21.3,7.4-32,11c-1.1,0.4-3.3-0.6-3.9-1.6
	c-2.5-3.8-4.9-7.7-6.8-11.9c-0.7-1.5-0.4-4.1,0.5-5.6c3-5,6.9-9.4,6.8-15.8c0-1.4,1.6-3.3,2.9-4.1c6.4-3.8,13.7-4.1,20.8-3.4
	c8.3,0.8,16.5,3.1,24.8,4.2c2.2,0.3,5-0.7,6.8-2c8.1-5.8,15.7-12.2,23.8-18c11.7-8.2,23.6-16.1,35.6-24c5.6-3.7,11.5-6.9,17.1-10.7
	c3.6-2.5,4.8-9.9,2.7-13.7c-2.8-4.7-5.4-9.5-8.6-14c-13.4-19.1-26.9-38.1-43.9-54.3c-4.8-4.6-9.5-4.9-13.7,0.2
	c-4.9,6-11.3,10.1-17.6,14.3c-3.8,2.5-8.9,3.3-12.1,6.3c-5.6,5.2-12.3,6.2-19,7.3c-3.8,0.6-8.3,0.1-11.9-1.4
	c-6.5-2.8-12-7.4-19.3-8.7c-6.9-1.3-13.2-2.1-18.1,4.4c-1.5,2-3.5,3.6-5,5.6c-4.6,6.2-9,12.6-13.4,18.9c-3.4,4.9-6.7,10-10.6,15.9
	c-3.3-6.1-6.1-11.2-8.9-16.3c1.4-1.2,2.5-2.1,3.4-3c8.3-8,9.8-22.8-1.4-29.8c-2.9-1.8-5.1-4.5-7.9-6.4c-1.7-1.2-3.8-2.6-5.6-2.5
	c-17.5,0.5-29.9,15.3-31,30.6c-0.5,7,1.8,9.9,8.9,11.5c4.8,1.1,9.9,1,14.7,1.9c2,0.4,4.5,1.5,5.5,3.1c5.9,10.1,11.5,20.4,16.9,30.8
	c7.7,15,15.1,30.2,22.8,45.3c7.8,15.1,15.8,30.2,23.6,45.3c4.1,7.9,4.1,8.1-3.8,12.4c-8.6,4.7-17.3,9.2-26.2,13.4
	c-5.9,2.8-12.5,4.3-18.1,7.4c-12.7,7.2-25.2,15-37.6,22.8c-8.3,5.3-16.4,11.1-24.5,16.7c-6,4.1-12,8.2-17.7,12.6
	c-5,3.9-9.8,8.2-14.5,12.7c-6.9,6.6-13.5,13.6-20.3,20.3c-3.6,3.6-7.1,7.4-11.2,10.3c-6.5,4.5-13.6,8.1-20.3,12.3
	c-4.9,3-9.5,6.4-14.2,9.7c0,6,0,12,0,18c6.5-4.3,12.5-9.3,19.5-12.6c13.1-6.3,21.3-18.3,32.4-26.8c5.5-4.2,9.6-10.4,14.9-14.9
	c8.3-6.9,17-13.5,25.9-19.6c14.2-9.7,28.4-19.6,43.2-28.3c14-8.2,28.8-15.1,43.3-22.3c13.7-6.9,27.4-13.5,41.8-20.5
	c8.9,15.5,17.7,30.9,27,47.1c-3.6,0.8-6.1,1.1-8.3,2c-3.3,1.3-7.5,2.3-9.6,4.8c-6.8,8.5-12.8,17.6-19.2,26.4
	c-0.7,0.9-2.2,1.4-3.4,1.7c-9,2.1-18,3.9-26.9,6.1c-9.9,2.5-19.6,5.5-18.9,16.5c-3.8,4-6.9,6.5-8.9,9.6c-3.3,5-6.1,10.2-13.3,10.2
	c-1.2,0-2.6,0.7-3.6,1.5c-9.1,7.6-18.3,15.1-27.2,22.9c-4,3.6-2.4,10.5,2.7,11.4c2.4,0.4,5.7-1.7,8-3.4c9.6-7.1,17.9-16,29.5-20.5
	c2.5-0.9,4.4-3.8,6.2-6.1c5.4-7.2,10.5-14.5,15.8-21.8c0.2-0.3,0.4-0.5,0.6-0.8c0.9-1.3,1.7-2.7,2.7-4.2c11.2-2.2,23.2-4.1,34.9-7
	c3.3-0.8,6.3-4,8.7-6.7c6.5-7.2,12.3-15.2,19.1-22.2c4.3-4.4,10.5-3.6,15.5-3.5c3,5.6,6.1,10.4,8.4,15.6c1.9,4.3,2.8,9,4.3,13.5
	c1.5,4.4,6.5,7.6,9.4,6.3c7-3.2,10.6-16.5,6.6-23c-3.4-5.4-6.4-11.2-9.4-16.6c5.5-1.8,10.3-3.3,14.5-4.7c5,4.4,6.3,9.4,6,15.5
	c-0.5,8.5,5.2,12.5,11.3,14.3c5.8,1.7,11.5,3.8,17.1,6.1c7.8,3.1,15.4,6.7,23.3,9.7c3,1.1,5.6,1.7,3.2,5.6c9,2.1,15.6-3.7,14.5-12.6
	c-0.2-1.3-1.6-2.9-2.9-3.4c-16.4-6.9-32.8-13.6-49.2-20.3c-3.6-1.5-5.7-4-5.6-8.3c0.1-4.1-0.2-8.4-1.3-12.3
	c-1.6-5.6-6.3-6.3-10.6-2.2c-1.5,1.4-3.2,2.5-5.1,3.9c-1-1.7-2.3-2.9-2.2-4c0.2-5.8-3.2-5.4-7.1-4.6c-4.2,0.8-8.4,1.6-12.5,2.3
	c-9.9-16.9-19.7-33.7-30.3-51.9c27.6-7.8,53.9-15.2,80.3-22.6c-0.3,5.4-0.5,9.7-0.7,13.9c-0.1,2.7,0.3,5.6-0.6,8
	c-1.9,5.2-4.8,10-6.6,15.2c-0.8,2.3-0.6,5.7,0.6,7.6c2,2.9,17,1.1,19.2-1.9c0.5-0.7,0.7-1.5,1.2-2.1c1.3-1.8,2.2-4.4,4-5.3
	c8.1-4.1,16.2-8.1,24.6-11.4c7.4-2.8,15.2-4.3,22.7-6.9c17-6,33.9-5.2,51-0.1c8.6,2.5,17.6,3.7,26.4,5.7c6.9,1.5,13.7,3.4,20.6,4.8
	c5.3,1.1,10.6,2.5,15.9,2.7c5.4,0.2,10.9-1,16.3-1.5c3.3-0.3,6.5-0.6,9.8-0.7c7.4-0.2,15-1,22.3-0.1c5.2,0.7,10.3,3.4,15,6
	c9.1,5.1,18.9,9.3,25,18.3c3.2,4.7,5.6,10,12.8,8.6c0.4-0.1,0.8,0.5,1.3,0.6c4.5,1.1,9.1,3.2,13.6,3c5.6-0.2,11.2-2.5,16.8-3.3
	c7.3-1.1,14.7-2.4,22.1-2.3c9.8,0.2,16,7.1,21.3,14.4c6.3,8.8,14.4,14.1,25,16.8c12.8,3.2,24.6,8.6,32.4,20.7
	c3.7,5.8,8.9,11.1,14.4,15.4c5.9,4.6,11.2,9.5,15,15.8c3.5,5.7,7.7,9.4,14.5,10.6c13.2,2.4,22.7,11.2,32.9,19.1
	c12.9,10.1,25.3,21,41.2,26.5c7.4,2.6,11,2,16-4.2c3.4-4.1,2.9-5.2-1.8-7.6c-8.5-4.4-17.2-8.5-25-13.9c-9.6-6.6-18.9-13.9-27.5-21.8
	c-8.3-7.6-18.5-12.1-28.6-13.2c-9.5-1-12-6-15.1-12.4c-0.4-0.9-0.6-1.9-1.2-2.7c-1.9-2.4-3.7-4.9-5.9-7c-3.7-3.7-8.6-6.6-11.1-11
	c-5.7-9.8-13.4-17.4-23.3-22.4c-7-3.6-14.6-6-22.2-8.5c-7.6-2.4-13.1-7.1-17.5-13.6c-6.7-9.9-15.6-15.9-28.1-16.4
	c-13.4-0.5-26.2,2.8-39.3,4.6c-2.1,0.3-4.7,0.1-6.5-0.9c-2.5-1.3-4.5-1.4-6.8,0.2c-1.3,0.9-2.8,1.4-4.5,2.3
	c-3.2-8.1-8.2-14.2-15.1-18.6c-4.6-2.9-9.1-6-14-8.4c-12.6-6.2-24.8-12.7-40.2-9.4c-11.2,2.4-23.1,1.8-34.6,2.4
	c-2.5,0.1-5.1-0.6-7.6-1.3c-5.7-1.5-11.3-3.5-17-4.7c-9.5-1.9-19.2-3.1-28.6-5.2c-4.5-1-8.5-4.1-13-4.7c-7.2-1-14.7-1.9-21.8-1
	c-9.5,1.3-18.9,4.1-28.2,6.8c-11.8,3.4-24.4,4.4-35.3,10.9c-5.7,3.4-11.5,6.7-18.3,10.8c2.7-7.8,6.3-14.8-1.7-21.1
	c3.1-3,5.4-7.3,8.6-8.1c16-4.2,32.2-8,48.5-11.1c23.7-4.5,47.3-9.2,71.2-12.2c20.6-2.5,41.4-3,62.2-3.9c7.6-0.4,15.2,0.3,22.8,0.5
	c14.4,0.4,28.9,0.7,43.3,1.3c13.8,0.6,27.6,1.6,41.4,2.5c12.4,0.8,24.8,1.4,37.2,2.4c8.4,0.7,16.8,1.7,25,3.3
	c24.6,4.7,49.3,9.3,73.7,15c15.8,3.7,31.4,8.7,46.8,13.9c15.2,5.2,30.3,10.9,44.9,17.3c15.8,7,31.1,15.1,46.6,22.7
	c14.9,7.2,28.9,15.7,41.7,26.2c5.1,4.2,11.2,7.6,15.2,12.7c10.3,13,23.7,21.9,37,31.3c1.7,1.2,3.1,4.2,3.1,6.4c0.2,5,1,6.1,5.8,6.3
	c1.5,0.1,3.2,1.3,4.2,2.6c3,3.8,5,8.9,8.7,11.6c14.8,10.9,30.2,21.1,45.3,31.6c1.7,1.2,3.3,2.7,4.9,4.2c5.8,5.5,11.7,11,17.4,16.6
	c1.3,1.3,2,3.4,2.4,5.2c1.1,5,1.4,10.3,2.9,15.2c1.3,4.1,4.3,6.7,9.3,5c1.1-0.4,2.7-0.1,3.8,0.3
	C1100.2,398.7,1108.2,394.1,1107,388.8z M308.2,29.5c-1.6,2.2-3.2,4.4-4.7,6.5c-3.2-2.5-5.8-4.5-9.1-7.2
	C299.7,27.7,304.1,22.5,308.2,29.5z M268.7,85.6c14.8-4.6,25.2-15.3,36.1-25.5c4.9-4.7,10.9-8.2,16.4-12.3c0.4,0.5,0.8,1,1.1,1.5
	c-12.5,11.9-24.6,24.1-37.6,35.4c-4.7,4.1-11.3,6.5-19.8,5.9C266.6,88.2,267.4,86,268.7,85.6z M280.8,107.2
	c13.4-4.5,22.9-14.1,32.5-23.8c3.9-3.9,8-7.7,12.3-11.2c3.2-2.7,6.7-4.9,10.3-7.5c5.4,3.5,5.5,7.7,1.5,12.7
	c-9,11.2-21.3,17.8-33,25.3c-7.5,4.8-14.5,10.2-21.8,15.2c-4.9,3.3-16.6,1.3-20.8-3.4C268.4,111.9,274.5,109.3,280.8,107.2z
	 M208.7,145.8c-0.6-6.8,6.1-21.1,14.9-24.9C218.3,129.8,213.7,137.5,208.7,145.8z"/>
</svg>
