<?xml version="1.0" encoding="utf-8"?>
<!-- Generator: Adobe Illustrator 19.2.1, SVG Export Plug-In . SVG Version: 6.00 Build 0)  -->
<svg version="1.1" id="Layer_3__x2B__Layer_4__x2B__Layer_2_copy_2__x2B__Invert_1_xA0_Image_1_"
	 xmlns="http://www.w3.org/2000/svg" xmlns:xlink="http://www.w3.org/1999/xlink" x="0px" y="0px" viewBox="0 0 675.6 461.3"
	 style="enable-background:new 0 0 675.6 461.3;" xml:space="preserve">
<style type="text/css">
	.st0{fill:#FFFFFF;}
</style>
<g>
	<path class="st0" d="M282.6,300.9c0,1.3-0.2,2.6,0.1,3.9c0.1,1.5,0.2,2.9,0.3,4.4c0.2,3,0.4,5.9,0.6,8.8c0.4,5.7,0.8,11.4,1.3,17.1
		c0.5,5.8,1,11.6,2,17.4c0.5,2.9,1.1,5.7,1.6,8.6c0.4,2.1,0.1,4.1-0.9,6c-1,1.8-2.7,3.6-4.5,4.7c-1.9,1.2-4,2.5-6,3.4
		c-3,1.3-6.5,1.9-9.4,0.1c-3.3-2-4.6-5.8-5.5-9.3c-0.9-3.7-2.4-7.3-5.1-10c-2.9-3-6.6-4.1-10.6-5c-2.2-0.5-4.4-1.1-6.4-2.2
		c-2-1.2-3.7-3.2-5.2-5c-3.6-4.1-6.5-8.6-8.7-13.5c-2.3-5.1-4-10.4-5.9-15.7c-0.9-2.5-1.7-5-2.4-7.6c-0.7-2.6-1.6-5-2.9-7.3
		c-2.7-4.9-5.8-9.5-8.5-14.4c-5.5-9.8-9.6-20.4-15.6-29.9c-3-4.8-6.2-9.3-9.1-14.1c-2.7-4.5-5.8-8.9-8.2-13.7
		c-1.2-2.4-2.1-4.9-2.9-7.4c-0.7-2.1-1.6-4.1-2.9-5.8c-1.5-1.9-3.3-3.3-5.2-4.7c-2.3-1.8-4.7-3.5-7-5.2c-9.4-6.9-18.7-14-27.9-21.2
		s-18.3-14.5-27.4-21.9c-9-7.3-17.9-14.6-26.1-22.8c-3.9-3.9-7.9-7.6-10.7-12.3c-1.3-2.2-2.4-4.3-2.7-6.8c-0.1-1.4-0.2-2.7-0.6-4
		c-0.3-1.2-0.6-2.4-0.9-3.7c-2-9.7-1-19.8,3.9-28.5c2-3.6,6.1-7.7,2.8-11.8c-1.7-2.1-4.3-3.5-6.5-5s-4.5-3.1-6.8-4.7
		c-2.3-1.7-4.6-3.3-6.9-5c-2.2-1.6-4.2-3.5-6.5-5c-3.9-2.7-8.5-4.3-13.2-5.1c-4.3-0.7-8.6-0.8-12.8-2.2c-3.6-1.2-6.9-3.2-9.2-6.3
		C1.3,34.4,0.5,29.6,0.2,25c-0.2-2.8-0.1-5.7,0.1-8.5c0.1-2.4,0.2-5,0.9-7.3c0.7-2.1,2-4,3.5-5.5c1.5-1.4,3.1-2.1,5-2.7
		c3.4-1,7.1-1.5,10.6-0.4c3.7,1.1,6.2,4,7.8,7.4c1.1,2.2,1.8,4.5,3,6.6c1.2,2.2,2.6,4.2,4.1,6.2c6.3,8,14.8,14.3,23,20.2
		c4.6,3.2,9.2,6.4,13.8,9.5c2.4,1.6,4.7,3.2,7.1,4.8c1.9,1.2,3.6,2.9,6,2.7c1.2-0.1,2.2-0.8,3.2-1.5c1.1-0.7,2.2-1.4,3.3-2.1
		c2.5-1.7,5-3.3,7.5-5c4.8-3.2,9.5-6.4,14.2-9.8c8.7-6.3,17.3-13,27-18c4.5-2.4,9.2-4.3,14.2-5.5c2.6-0.6,5.2-1,7.8-1.1
		c1.3-0.1,2.6-0.1,3.9,0s2.6,0.3,3.9,0.3c1.5-0.1,2.9-0.4,4.4-0.4c1.2,0,2.4,0.1,3.6,0.2c2.5,0.1,5.1,0.2,7.5,0.9
		c2.5,0.7,4.8,2.1,7.1,3.3c2.6,1.4,5.1,2.8,7.6,4.3c4.8,2.8,9.6,5.9,14.5,8.6c4.7,2.6,9.5,4.9,14.1,7.5c4.7,2.7,9,5.9,13.6,8.8
		c4.7,2.9,9.6,5.6,14.4,8.2c2.5,1.3,4.9,2.8,7.4,4.1c2.4,1.3,4.9,2.5,7.3,3.8c5,2.8,9.6,6.3,14.4,9.4c2.4,1.5,4.8,3,7.2,4.4
		c2.3,1.3,4.6,2.5,7.3,2.2c2.5-0.3,4.7-1.6,7.2-2c1.4-0.2,2.8,0.1,4.2,0.3c1.4,0.2,2.8,0.5,4.2,0.8c11.3,2.4,22.2,6,33.4,8.9
		c5.6,1.5,11.3,2.5,17.1,3.2s11.6,1.2,17.4,2s11.7,1.6,17.5,2.5c2.8,0.4,5.6,0.9,8.4,1.5c2.7,0.6,5.3,1.5,8,2.4
		c2.5,0.9,5.1,1.6,7.7,2c3,0.4,6,0.8,9,1.1c5.8,0.6,11.6,1.1,17.4,1.5c5.3,0.4,10.8,0.1,16,1.4c2.2,0.6,4.4,1.5,6.3,2.7
		c1.9,1.2,3.3,2.9,5.1,4.3c3.5,2.8,7.8,1.5,11.9,1.8c2.4,0.1,4.8,0.6,7.1,1.4c1.5,0.5,3.5,1.1,4.4,2.5c1.6,2.3,1.6,5.7,1.6,8.4
		c0,3-0.3,6.3-1.4,9.1c-0.6,1.4-1.4,2.3-2.9,2.8c-1.3,0.4-2.8,0.5-4.2,0.7c-1.3,0.2-2.6,0.4-3.9,0.6c-5.9,0.9-11.8,1.8-17.7,2.6
		c-3.1,0.5-6.1,0.9-9.1,1.3c-1.4,0.2-2.9,0.4-4.3,0.6c-1.3,0.2-2.7,0.5-4.1,0.5c-1.4-0.1-2.7-0.5-4.1-0.6c-1.3-0.2-2.5,0-3.8,0.2
		c-2.9,0.3-5.9,0.7-8.8,1.1c-5.8,0.8-11.6,1.6-17.3,2.5c-5.2,0.8-10.3,1.9-15.4,2.8c1.8,2,3.4,4.1,5.1,6.2c1.5,1.9,3.1,3.6,5,5
		c2,1.4,4.1,2.7,6.1,4.1c4,2.8,8,5.7,11.8,8.8c7.5,6.1,14.8,13.3,19.7,21.7c2.4,3.9,3.5,8.3,3.2,12.9c-0.4,4.9-2.4,9.3-4.2,13.8
		c-0.9,2.1-1.7,4.4-2.2,6.7c-0.5,2.5-1,5-1.9,7.4c-1.8,4.6-4.5,8.8-7.8,12.5c-3.2,3.6-6.9,6.8-10.7,9.7c-3.8,3-7.7,6.1-11.7,8.7
		c-2.1,1.4-4.1,2.7-5.9,4.5c-1.8,1.7-3.6,3.5-5.4,5.2c-3.6,3.4-7.3,6.8-11.1,9.9c-3.8,3.2-7.9,6.2-12.1,8.8
		c-4.5,2.8-9.3,5.1-14.1,7.4c-10,4.7-20.2,9-30.9,11.7c-5.5,1.4-11,2.1-16.6,2.5c-2.7,0.1-5.4,0.3-8.1-0.1c-2.7-0.4-5.3-1.2-7.8-2.2
		c-1.1-0.5-2.1-0.9-3-1.7c-0.7-0.6-1.2-1.3-1.8-2c-1.6-1.9-3.3-2.9-5.4-4.1C292.7,306.1,287.6,303.6,282.6,300.9
		C282.6,301.8,288.9,304.3,282.6,300.9z M77.1,105.2c-1.1,5.6,2.3,9.5,5.8,13.2c2.4,2.2,4.6,4.4,7,6.5c2.8,2.5,5.8,4.9,8.8,7.2
		c6.2,4.9,12.4,9.8,18.5,14.8c12.6,10.1,25.1,20.1,37.4,30.5c6.1,5.1,12.7,9.8,19.1,14.6c3.3,2.4,6.6,4.8,9.8,7.2
		c3,2.2,5.8,4.7,8.8,7c6.1,4.9,13,8.8,18.9,14c2.8,2.5,5.5,5.2,8.5,7.4c3.2,2.4,6.5,4.4,9.7,6.6c6.6,4.5,13,9.6,19.4,14.4
		c3.2,2.4,6.5,4.7,9.6,7.3c1.4,1.1,2.6,2.4,4,3.5c1.3,1.1,2.9,2,4.4,2.8c1.6,0.8,3.2,1.7,4.9,2.5c1.8,0.8,3.2,1.7,4.7,2.9
		c3.1,2.4,6,4.8,9.1,7.1c6.2,4.7,12.9,8.5,19.7,12.1c1.7,1,3.5,1.9,5.2,2.8c0.8,0.4,1.6,0.9,2.5,1.1c0.8,0.1,1.6,0.1,2.4,0.2
		c1.7,0.1,3.4,0.6,5,1s3.1,0.8,4.5,1.6c3.1,1.8,6.2,2.7,9.8,2.4c3.5-0.3,6.9-1.5,10.3-2.6c7.4-2.3,14.7-5.2,21.8-8.5
		c6.7-3,13.3-6.3,19-10.9c11.8-9.4,22.8-19.7,32.9-30.9c4.2-4.8,8.4-9.7,11.6-15.2c1.6-2.8,2.9-5.8,3.8-8.9c0.9-3,1.6-6.4,1.1-9.5
		c-0.2-1.3-0.6-2.7-1.5-3.8c-1-1.3-2.2-2.5-3.3-3.7c-2.2-2.5-4.4-5-6.7-7.4c-2.3-2.4-4.7-4.6-7.3-6.6c-2.9-2.2-6-3.9-9.2-5.4
		c-6.5-3.1-13.4-5.7-19.6-9.5c-5.2-3.2-9.9-7.3-13.4-12.3c-0.9-1.3-1.7-2.7-2.5-4.1c-0.8-1.5-1.5-2.4-2.9-3.3
		c-3.3-2.1-6.7-3.9-10.1-5.9c-6.9-4-13.9-8-20.6-12.4c-13-8.6-25.2-18.3-38-27c-13-8.8-27.5-15.2-41.5-22.3
		c-0.8-0.5-1.7-0.6-2.4-1.1c-0.8-0.6-1.6-1.1-2.4-1.7c-1.6-1.1-3.1-2.3-4.7-3.4c-3.2-2.4-6.4-4.7-9.7-7c-3.1-2.2-6.2-4.5-9.7-6.2
		c-3.2-1.5-6.5-2.9-9.7-4.5c-6.3-3.2-13-5.9-19-9.7c-3-1.9-5.6-4.3-8.7-6c-2.9-1.6-6.1-2.7-9.3-3.6c-3.2-0.9-6.4-1.6-9.6-2.6
		c-1.6-0.5-3.2-1.2-4.8-1.6c-1.8-0.4-3.7-0.5-5.6-0.4c-3.8,0.3-7.4,1.6-10.9,3.1c-3.3,1.5-6.8,2.9-10.1,4.4c-6.9,3.2-13,7.4-19,12.1
		c-6,4.8-11.8,9.9-17.7,14.8c-6,5-12.1,10-17.7,15.5c-2.7,2.7-5.2,5.5-7.5,8.4c-1,1.3-2.2,2.5-2.5,4.2
		C77.2,102,77.3,103.6,77.1,105.2C75.6,112.8,77.5,102.9,77.1,105.2z"/>
	<path class="st0" d="M564.4,415.2c-1.5,0.4-3.2,0.5-4.9-0.4c-1.3-0.8-2.1-2.1-2.8-3.4c-1-1.9-1.7-3.9-2.8-5.6
		c-1.2-1.9-3.2-3.3-4.9-4.8c-3.8-3.4-7.6-6.8-11.4-10.2c-7.6-6.6-15.3-13-23.2-19.3c-7.9-6.3-16-12.5-24.2-18.5
		c-7.6-5.6-16.3-9.5-24.2-14.7c-3.2-2.1-7.2-4.8-7.9-8.8c-0.8-4.3,1.9-8.2,4.7-11.1c2.5-2.6,5.6-5.5,9.3-5.9c3.7-0.4,7.1,2,10.1,3.8
		c4.2,2.5,8.3,5,12.7,7.2c4.7,2.3,9.3,4.6,14,6.9c9.3,4.6,18.6,9.1,27.9,13.6c4.6,2.3,9.2,4.5,13.9,6.6c1,0.5,2,1.1,3,1.2
		c0.7,0,1.5-0.1,2.2-0.2c0.6-0.1,1.4-0.3,1.8-0.7c0.5-0.5,0.5-1.4,0.8-2c1.4-3.2,4-5.4,6.9-7.2c1.3-0.9,2.7-1.7,4.1-2.6
		c0.7-0.4,1.4-1.1,2.1-1.4c0.7-0.3,1.5-0.1,2.2,0c2,0.4,3.5,1.8,5.1,3c1.8,1.4,3.6,3,5.4,4.4c4,3.1,8.3,5.7,12.5,8.5
		c8.5,5.6,17.1,11.2,25.8,16.6c3.6,2.2,7,4.5,10.4,7c3.2,2.3,6.5,4.5,10.2,5.6c2,0.6,4,0.6,5.9,1.4c1.8,0.8,3.6,2,4.8,3.6
		c2.4,3.1,5,5.8,8.5,7.7c3.5,2,7.4,2.7,10.2,5.6c2.6,2.7,3.8,6.6,2.5,10.3c-1.2,3.5-4.3,6.1-7.5,7.9c-1.8,1-3.8,1.7-5.9,1.7
		c-2.5,0-4.5-1-6.6-2.1c-4.3-2.1-8.9-3.6-13.4-5.3c-4.8-1.8-9.7-3.7-14.5-5.5c-9.8-3.7-19.6-7.4-29.4-11.1c-3.5-1.4-7.4-2.6-11-0.8
		c-1.3,0.7-2.1,1.7-2.3,3.2c-0.2,2-0.7,4-1.5,5.8c-0.8,1.8-1.9,3.6-3.1,5.2c-1.2,1.6-2.5,3.2-4.1,4.4
		C572.2,417.3,568.3,416,564.4,415.2C560.5,416.3,565.7,415.4,564.4,415.2z"/>
	<path class="st0" d="M465.9,289.3c-2.5,0.2-5.4,0.4-7.5-0.7c-1.5-0.9-2.1-2.5-2.4-4.2c-0.6-3.6-0.3-7.5,0.4-11.1
		c0.6-3,1.8-5.5,4.6-6.8c1.3-0.6,2.7-0.8,4.2-1c1.7-0.2,3-1.3,4.3-2.3c1.3-0.9,2.6-1.8,3.9-2.8c1.2-0.9,2.2-1.6,3.8-1.3
		c4,0.8,8.1,0.9,12.2,0.4c3.9-0.5,7.7-1.4,11.4-2.6c3.5-1.1,6.9-2.4,9.7-4.7c4.8-3.9,11.9-5.4,16.9-1c1,0.9,1.8,1.9,2.4,3.1
		c0.7,1.2,1.3,2.4,2.4,3.3c2.2,1.6,5,1.1,7.5,1c2.8-0.1,5.8-0.1,8.4,1.2c1.5,0.7,2.6,1.7,3.6,3c1,1.2,2.1,1.6,3.7,1.7
		c4.1,0.3,8.2,0.1,12.3,0.1c4.2,0,8.5,0.1,12.8-0.1c8.1-0.4,16.1-1.9,23.8-4.1c3.4-1,7-2.7,10.6-2.3c3,0.3,5.8,2.2,7.9,4.2
		c2.3,2.2,4,5.1,4.6,8.3c0.5,2.7,0.2,5.7-0.5,8.3c-0.6,2.5-1.9,4.8-4,6.3c-0.7,0.5-1.3,0.8-2,1.1c-0.6,0.2-1.4,0.3-2,0.7
		c-0.7,0.4-1.1,1.4-1.6,2s-1,1.1-1.5,1.7c-4.2,4.5-9.9,6.2-15.9,6.1c-7.7-0.1-15.1,1.9-22.5,3.7c-6.7,1.7-13.4,3.8-18.9,8
		c-2.3,1.8-4,4.1-7.1,4.4c-2.7,0.3-5.5-0.5-7.7-1.9c-2.7-1.7-3.9-4.5-5.7-7c-1.8-2.7-4.2-4.5-7.1-5.7c-2.7-1.1-5.5-1.8-8.1-3
		c-1.3-0.6-2.6-1.2-3.7-2.1c-0.6-0.5-1.2-1-1.7-1.6c-0.5-0.5-0.7-1.1-1.4-1.1c-4.1-0.1-8.2-0.8-12.2-1.3c-4.2-0.5-8.3-1-12.5-1.3
		c-4.3-0.3-8.5-0.4-12.7,0C474.3,288.3,470.1,288.9,465.9,289.3C457.9,290,472.7,288.6,465.9,289.3z"/>
	<path class="st0" d="M515.4,439.7c0,3.1,0.2,6.1-0.1,9.2c-0.3,5.6-5.2,11-10.6,12.2c-5.6,1.2-12-2-15-6.7c-1.6-2.6-1.6-5.7-2.9-8.3
		c-0.7-1.5-2.1-2.7-3.3-4c-1.3-1.4-2.6-2.8-3.9-4.2c-5.3-5.7-10.7-11.3-16.3-16.8c-1-1-2-2.3-3.4-2.8c-1.2-0.4-2.5-0.5-3.8-0.4
		c-1.4,0.1-2.4,0.8-3.7,1.2c-1.3,0.4-2.7,0.7-4.1,0.7c-2.6,0-5.2-0.8-7.3-2.3c-2.2-1.7-3.4-3.9-4.1-6.5c-1.7-6.4-5.2-11.9-9.2-17.1
		c-4.8-6.2-9.7-12.3-14.6-18.5c-4.9-6.3-9.9-12.6-14.9-18.9c-1.2-1.6-2.5-3.1-3.7-4.7c-1.1-1.4-2.4-2.8-3.3-4.3
		c-1.5-2.4-2-5.4-1.5-8.2c0.5-3,2.3-5.3,4.6-7.3c2.1-1.7,4.5-3.2,7.2-3.6c2.6-0.4,4.5,0.9,6.8,2.1c2.6,1.4,5.3,2.7,7.9,4.2
		c2.6,1.6,5,3.4,7,5.6c1.1,1.2,1.9,2.6,2.9,3.9c1.1,1.4,2.4,2.6,3.8,3.8c5.9,4.9,12.4,9.2,18.5,13.8c6.2,4.6,12.2,9.3,17.9,14.4
		c2.3,2.1,5.1,3.5,8.3,3.8c1.4,0.1,2.9,0,4.3-0.3c1.5-0.3,2.9-0.9,4.3-1.2c2.3-0.6,4.7-0.3,6.4,1.5c2,2.1,2.9,5.2,3.8,7.9
		c1.2,3.6,2.2,7.2,3.4,10.8c1.1,3,2.1,6.1,3.1,9.1c1.9,5.8,4.2,11.8,8.7,16.1c2.3,2.3,4.7,4.5,6.1,7.5
		C515.9,434,516.2,436.9,515.4,439.7C515.4,443.6,517.1,434.1,515.4,439.7z"/>
	<path class="st0" d="M292.4,139.1c-0.2,3.5-1,7.1-2.5,10.4c-1.4,3.3-3.6,6.1-6.2,8.6c-3.2,3.1-6.1,6.5-8.9,10
		c-5.8,7.2-12,14.2-18.2,21.1c-1.5,1.6-2.9,3.4-4.6,4.8c-1.6,1.4-3.3,2.5-5,3.8c-3.1,2.4-5.5,5.4-9.1,7.2c-3.2,1.6-6.9,2.1-10.5,1.2
		c-2-0.5-3.8-1.5-5.6-2.4c-2.1-1-4.2-2.1-6.2-3.3c-4-2.3-7.9-4.7-11.8-7.2c-4-2.5-7.9-4.9-11.7-7.6c-3.6-2.6-7.2-5.3-10.9-7.9
		c-4-2.7-8-5.4-12-8.1c-3.8-2.5-7.8-4.7-11.7-7c-3.9-2.2-7.6-4.8-11.3-7.5c-7.7-5.7-15.2-11.5-22.8-17.3c-3.9-3-7.7-5.9-11.5-8.9
		c-2.8-2.2-5.6-4.3-7.9-7c-2.4-2.9-3.4-6.1-3.7-9.8c-0.2-3.4-0.1-6.9,0.8-10.2c0.9-3.1,2.3-6,4.4-8.5c2.5-3.1,5.9-5,9-7.5
		c7.1-5.6,13.5-12.2,20-18.5c3.4-3.2,6.8-6.4,10.3-9.4c3-2.6,6.2-5,9.8-6.7c3.4-1.6,7.1-2.5,10.9-2.4c1.9,0,3.9,0.4,5.7,0.9
		c1.1,0.3,2.2,0.7,3.3,1.2c0.9,0.4,1.6,0.8,2.6,0.9c1.8,0.1,3.7-0.5,5.5-0.6c1.6-0.1,3.2,0,4.7,0.4c1.6,0.4,3.1,1.2,4.3,2.3
		c1.4,1.3,2.4,3.1,3.9,4.3c3.2,2.7,7.4,4.4,11.1,6.3c4.2,2.1,8.4,4.2,12.6,6.4c8.3,4.3,16.1,9.4,24.1,14.3c3.9,2.4,7.9,4.8,11.9,7
		c3.8,2.1,7.6,4.1,11.3,6.4c7.1,4.4,14.1,9.8,18.9,16.8S290.5,131,292.4,139.1C291.9,146.8,290.7,132,292.4,139.1z M228,180.6
		c2.7-1.4,5.3-2.8,7.9-4.3c4.7-3.2,9.1-6.9,12.6-11.4c1.9-2.5,3.6-5.2,5.4-7.8c1.9-2.6,3.9-5.3,6-7.8c2.8-3.4,7.9-7.4,7.5-12.3
		c-0.4-4.7-5.5-7.9-8.9-10.3c-10.9-7.9-22-15.4-32.4-23.8c-4.3-3.5-8.8-6.4-14.6-5.4c-5.9,1-9.7-3.7-13.8-7
		c-4.9-3.9-10.4-7.1-15.7-10.3c-5-3.1-10.4-6.8-16.5-5.9c-4.7,0.7-8.3,4.1-11.5,7.3c-4.4,4.4-9,8.7-13.7,12.9
		c-2.5,2.3-5,4.5-7.6,6.8c-1.3,1.1-2.5,2.2-3.8,3.3c-1,0.8-1.8,1.7-2.3,2.9c-0.9,2.2-0.3,4.5,1.2,6.2c1,1.2,2.4,2.1,3.7,3.1
		c1.4,1,2.7,2.1,4.1,3.1c11,8.4,22.3,16.5,33.2,25.1c4.9,3.9,9.7,7.9,14.8,11.6c4.8,3.5,10.1,6.2,15.1,9.5c4.6,3.1,9,6.4,13.8,9.1
		c2.4,1.3,5,2.5,7.6,3.4C222.7,179.4,225.4,179.9,228,180.6C229.3,179.9,226.5,180.2,228,180.6z"/>
	<path class="st0" d="M284.8,219.2c-1-1.8-2.2-3.4-3-5.1c-1-2.2-1.3-4.5-1.3-6.9c0-1.9-0.2-4.1,0.1-6c0.2-1.3,0.7-2.5,1.3-3.6
		c1.2-2.5,2.9-4.9,4.8-7c0.8-0.9,1.7-1.7,2.7-2.4c1.3-0.8,2.5-0.8,3.9-0.4c4,1.3,8.3,2.2,11.9,4.4c1.5,1,3,2.3,3.9,3.9
		c1,1.7,1.2,3.8,1.5,5.7c0.7,4.2,1.2,8.7,0.6,12.9c-0.5,3.1-2.4,5.8-4.8,7.7c-2.4,1.9-5.5,3.2-8.6,3.1c-1.8,0-3.4-0.8-5-1.6
		c-1.7-0.9-3.3-1.5-5.1-2.1c0.8,3.7,2.5,7.4,2.5,11.3c0,2.9-0.5,6.1-1.6,8.8c-1,2.4-2.4,3.7-4.9,4.4c-2.8,0.8-5.8,0.8-8.7,0.4
		c-2.2-0.3-4.2-0.8-5.7-2.5c-1.4-1.6-2.2-3.7-2.7-5.8c-0.6-2.3-0.8-4.8-0.6-7.2c0.3-2.5,1.1-4.8,2.3-7c0.6-1.2,1.3-2.3,2.3-3.2
		s2.5-1.2,3.9-1.4C277.9,219.1,281.4,219.4,284.8,219.2C283.7,217.2,280.5,219.4,284.8,219.2z"/>
	<path class="st0" d="M306.4,172.9c0-4.3,1.8-8.7,3.6-12.5c2.2-3.8,5-7.4,8.6-9.9c1.4-0.9,2.8-1.6,4.4-2c1.7-0.5,3.3-1.1,5.1-1.4
		c1.7-0.3,3.5-0.3,5,0.6c1.9,1.1,2.9,3.1,4.1,4.8c2.4,3.4,4.9,6.8,6,10.9c1.1,4.2,0.8,9.1-0.7,13.1s-4.5,7.6-8.2,9.6
		c-3.9,2.1-8.4,2.4-12.7,3.5c-2.1,0.5-4,1.2-6.2,0.6c-1.8-0.5-3.3-1.8-4.2-3.4C308.7,182.6,307.9,177.5,306.4,172.9
		C306.3,164,307.7,176.9,306.4,172.9z"/>
	<path class="st0" d="M368.4,221.7c0.4,0.2,0.8,0.4,1.1,0.5c-2,4.5-3.3,9.5-6.2,13.6c-2.7,3.8-7.2,4.6-11.4,6c-2,0.7-3.8,1.5-6,1.5
		c-1.9,0-3.8-0.5-5.5-1.4c-3-1.5-6-4.2-7.7-7.2c-1.4-2.5-1.7-5.8-1.7-8.6c-0.1-2.9,0.2-6.1,1.3-8.9c0.5-1.3,1.3-2.1,2.4-3
		c1.6-1.3,3.4-2.5,5.3-3.4c3.7-1.7,7.9-2.3,11.9-1.7c2.4,0.3,4.7,1.1,7,1.8c1.9,0.6,3.9,1.1,5.6,2.2
		C367.5,215,368.5,218.3,368.4,221.7C368.8,221.9,368.5,216.7,368.4,221.7z"/>
	<path class="st0" d="M387.9,198.2c-0.4,2.2-0.2,4.6-1,6.6c-0.7,1.6-2,3-3.4,4.1c-2.7,2.1-6.2,3-9.6,2.8c-6.6-0.4-12.3-4.5-15-10.5
		c-2.8-6.2-1.7-13.6,2.5-19c1-1.3,2.3-3,4-3.5s3.5-0.4,5.2-0.2c3.1,0.3,6.1,1.3,8.7,3C385,185.2,388.1,191.5,387.9,198.2
		C387.4,200.7,388.3,185.6,387.9,198.2z"/>
	<path class="st0" d="M324.9,271.4c-10.9-0.3-16.3-5.2-15.3-14.9c1.1-11,5.3-13.3,17.5-13.8c3.2-0.1,6.1,2,8.1,4.3
		c3.9,4.4,6.4,11.3,4,17C336.8,269.6,330.8,272.6,324.9,271.4C314,271.1,333.9,273.2,324.9,271.4z"/>
	<path class="st0" d="M396.6,237.4c-0.3,1.8-0.1,3.5-0.8,5.2c-1,1.8-2,3.5-3.1,5.2c-1.9,3.1-3.9,6.5-6.6,9c-3.8,3.4-10.1,5-14.3,1.3
		c-1.1-1-2-2.2-2.7-3.4c-0.6-0.9-1.5-2-1.4-3.1c0.1-1,0.6-2,1.2-2.8c0.7-0.9,1.9-1,2.9-1.5c4.7-2.1,6.7-6.9,8.3-11.5
		c0.8-2.4,1.7-4.6,3.5-6.4c1.8-1.8,4.2-2.8,6.7-2.8C393.3,226.5,396.2,232.2,396.6,237.4C396.4,239,396.2,232.2,396.6,237.4z"/>
</g>
</svg>
