<?xml version="1.0" encoding="utf-8"?>
<!-- Generator: Adobe Illustrator 19.2.1, SVG Export Plug-In . SVG Version: 6.00 Build 0)  -->
<svg version="1.1" id="Layer_3__x2B__Layer_4__x2B__Layer_2_copy_2__x2B__Invert_1_xA0_Image_1_"
	 xmlns="http://www.w3.org/2000/svg" xmlns:xlink="http://www.w3.org/1999/xlink" x="0px" y="0px" viewBox="0 0 675.6 461.3"
	 style="enable-background:new 0 0 675.6 461.3;" xml:space="preserve">
<style type="text/css">
	.st0{fill:#FFFFFF;}
</style>
<g>
	<path class="st0" d="M393.1,300.9c-5,2.7-10.1,5.2-15,8c-2.1,1.2-3.8,2.2-5.4,4.1c-0.6,0.7-1.1,1.4-1.8,2c-0.9,0.8-1.9,1.2-3,1.7
		c-2.5,1-5.1,1.8-7.8,2.2c-2.7,0.4-5.4,0.2-8.1,0.1c-5.6-0.4-11.1-1.1-16.6-2.5c-10.7-2.7-20.9-7-30.9-11.7
		c-4.8-2.3-9.6-4.6-14.1-7.4c-4.2-2.6-8.3-5.6-12.1-8.8c-3.8-3.1-7.5-6.5-11.1-9.9c-1.8-1.7-3.6-3.5-5.4-5.2
		c-1.8-1.8-3.8-3.1-5.9-4.5c-4-2.6-7.9-5.7-11.7-8.7c-3.8-2.9-7.5-6.1-10.7-9.7c-3.3-3.7-6-7.9-7.8-12.5c-0.9-2.4-1.4-4.9-1.9-7.4
		c-0.5-2.3-1.3-4.6-2.2-6.7c-1.8-4.5-3.8-8.9-4.2-13.8c-0.3-4.6,0.8-9,3.2-12.9c4.9-8.4,12.2-15.6,19.7-21.7c3.8-3.1,7.8-6,11.8-8.8
		c2-1.4,4.1-2.7,6.1-4.1c1.9-1.4,3.5-3.1,5-5c1.7-2.1,3.3-4.2,5.1-6.2c-5.1-0.9-10.2-2-15.4-2.8c-5.7-0.9-11.5-1.7-17.3-2.5
		c-2.9-0.4-5.9-0.8-8.8-1.1c-1.3-0.2-2.5-0.4-3.8-0.2c-1.4,0.1-2.7,0.5-4.1,0.6c-1.4,0-2.8-0.3-4.1-0.5c-1.4-0.2-2.9-0.4-4.3-0.6
		c-3-0.4-6-0.8-9.1-1.3c-5.9-0.8-11.8-1.7-17.7-2.6c-1.3-0.2-2.6-0.4-3.9-0.6c-1.4-0.2-2.9-0.3-4.2-0.7c-1.5-0.5-2.3-1.4-2.9-2.8
		c-1.1-2.8-1.4-6.1-1.4-9.1c0-2.7,0-6.1,1.6-8.4c0.9-1.4,2.9-2,4.4-2.5c2.3-0.8,4.7-1.3,7.1-1.4c4.1-0.3,8.4,1,11.9-1.8
		c1.8-1.4,3.2-3.1,5.1-4.3c1.9-1.2,4.1-2.1,6.3-2.7c5.2-1.3,10.7-1,16-1.4c5.8-0.4,11.6-0.9,17.4-1.5c3-0.3,6-0.7,9-1.1
		c2.6-0.4,5.2-1.1,7.7-2c2.7-0.9,5.3-1.8,8-2.4c2.8-0.6,5.6-1.1,8.4-1.5c5.8-0.9,11.7-1.7,17.5-2.5s11.6-1.3,17.4-2
		s11.5-1.7,17.1-3.2c11.2-2.9,22.1-6.5,33.4-8.9c1.4-0.3,2.8-0.6,4.2-0.8c1.4-0.2,2.8-0.5,4.2-0.3c2.5,0.4,4.7,1.7,7.2,2
		c2.7,0.3,5-0.9,7.3-2.2c2.4-1.4,4.8-2.9,7.2-4.4c4.8-3.1,9.4-6.6,14.4-9.4c2.4-1.3,4.9-2.5,7.3-3.8c2.5-1.3,4.9-2.8,7.4-4.1
		c4.8-2.6,9.7-5.3,14.4-8.2c4.6-2.9,8.9-6.1,13.6-8.8c4.6-2.6,9.4-4.9,14.1-7.5c4.9-2.7,9.7-5.8,14.5-8.6c2.5-1.5,5-2.9,7.6-4.3
		c2.3-1.2,4.6-2.6,7.1-3.3c2.4-0.7,5-0.8,7.5-0.9c1.2-0.1,2.4-0.2,3.6-0.2c1.5,0,2.9,0.3,4.4,0.4c1.3,0,2.6-0.2,3.9-0.3
		s2.6-0.1,3.9,0c2.6,0.1,5.2,0.5,7.8,1.1c5,1.2,9.7,3.1,14.2,5.5c9.7,5,18.3,11.7,27,18c4.7,3.4,9.4,6.6,14.2,9.8
		c2.5,1.7,5,3.3,7.5,5c1.1,0.7,2.2,1.4,3.3,2.1c1,0.7,2,1.4,3.2,1.5c2.4,0.2,4.1-1.5,6-2.7c2.4-1.6,4.7-3.2,7.1-4.8
		c4.6-3.1,9.2-6.3,13.8-9.5c8.2-5.9,16.7-12.2,23-20.2c1.5-2,2.9-4,4.1-6.2c1.2-2.1,1.9-4.4,3-6.6c1.6-3.4,4.1-6.3,7.8-7.4
		C658.9-0.5,662.6,0,666,1c1.9,0.6,3.5,1.3,5,2.7c1.5,1.5,2.8,3.4,3.5,5.5c0.7,2.3,0.8,4.9,0.9,7.3c0.2,2.8,0.3,5.7,0.1,8.5
		c-0.3,4.6-1.1,9.4-3.9,13.2c-2.3,3.1-5.6,5.1-9.2,6.3c-4.2,1.4-8.5,1.5-12.8,2.2c-4.7,0.8-9.3,2.4-13.2,5.1c-2.3,1.5-4.3,3.4-6.5,5
		c-2.3,1.7-4.6,3.3-6.9,5c-2.3,1.6-4.6,3.2-6.8,4.7s-4.8,2.9-6.5,5c-3.3,4.1,0.8,8.2,2.8,11.8c4.9,8.7,5.9,18.8,3.9,28.5
		c-0.3,1.3-0.6,2.5-0.9,3.7c-0.4,1.3-0.5,2.6-0.6,4c-0.3,2.5-1.4,4.6-2.7,6.8c-2.8,4.7-6.8,8.4-10.7,12.3
		c-8.2,8.2-17.1,15.5-26.1,22.8c-9.1,7.4-18.2,14.7-27.4,21.9s-18.5,14.3-27.9,21.2c-2.3,1.7-4.7,3.4-7,5.2
		c-1.9,1.4-3.7,2.8-5.2,4.7c-1.3,1.7-2.2,3.7-2.9,5.8c-0.8,2.5-1.7,5-2.9,7.4c-2.4,4.8-5.5,9.2-8.2,13.7c-2.9,4.8-6.1,9.3-9.1,14.1
		c-6,9.5-10.1,20.1-15.6,29.9c-2.7,4.9-5.8,9.5-8.5,14.4c-1.3,2.3-2.2,4.7-2.9,7.3c-0.7,2.6-1.5,5.1-2.4,7.6
		c-1.9,5.3-3.6,10.6-5.9,15.7c-2.2,4.9-5.1,9.4-8.7,13.5c-1.5,1.8-3.2,3.8-5.2,5c-2,1.1-4.2,1.7-6.4,2.2c-4,0.9-7.7,2-10.6,5
		c-2.7,2.7-4.2,6.3-5.1,10c-0.9,3.5-2.2,7.3-5.5,9.3c-2.9,1.8-6.4,1.2-9.4-0.1c-2-0.9-4.1-2.2-6-3.4c-1.8-1.1-3.5-2.9-4.5-4.7
		c-1-1.9-1.3-3.9-0.9-6c0.5-2.9,1.1-5.7,1.6-8.6c1-5.8,1.5-11.6,2-17.4c0.5-5.7,0.9-11.4,1.3-17.1c0.2-2.9,0.4-5.8,0.6-8.8
		c0.1-1.5,0.2-2.9,0.3-4.4C393.3,303.5,393.1,302.2,393.1,300.9C386.8,304.3,393.1,301.8,393.1,300.9z M598.6,105.2
		c-0.2-1.6-0.1-3.2-0.4-4.8c-0.3-1.7-1.5-2.9-2.5-4.2c-2.3-2.9-4.8-5.7-7.5-8.4c-5.6-5.5-11.7-10.5-17.7-15.5
		c-5.9-4.9-11.7-10-17.7-14.8c-6-4.7-12.1-8.9-19-12.1c-3.3-1.5-6.8-2.9-10.1-4.4c-3.5-1.5-7.1-2.8-10.9-3.1c-1.9-0.1-3.8,0-5.6,0.4
		c-1.6,0.4-3.2,1.1-4.8,1.6c-3.2,1-6.4,1.7-9.6,2.6c-3.2,0.9-6.4,2-9.3,3.6c-3.1,1.7-5.7,4.1-8.7,6c-6,3.8-12.7,6.5-19,9.7
		c-3.2,1.6-6.5,3-9.7,4.5c-3.5,1.7-6.6,4-9.7,6.2c-3.3,2.3-6.5,4.6-9.7,7c-1.6,1.1-3.1,2.3-4.7,3.4c-0.8,0.6-1.6,1.1-2.4,1.7
		c-0.7,0.5-1.6,0.6-2.4,1.1c-14,7.1-28.5,13.5-41.5,22.3c-12.8,8.7-25,18.4-38,27c-6.7,4.4-13.7,8.4-20.6,12.4
		c-3.4,2-6.8,3.8-10.1,5.9c-1.4,0.9-2.1,1.8-2.9,3.3c-0.8,1.4-1.6,2.8-2.5,4.1c-3.5,5-8.2,9.1-13.4,12.3c-6.2,3.8-13.1,6.4-19.6,9.5
		c-3.2,1.5-6.3,3.2-9.2,5.4c-2.6,2-5,4.2-7.3,6.6c-2.3,2.4-4.5,4.9-6.7,7.4c-1.1,1.2-2.3,2.4-3.3,3.7c-0.9,1.1-1.3,2.5-1.5,3.8
		c-0.5,3.1,0.2,6.5,1.1,9.5c0.9,3.1,2.2,6.1,3.8,8.9c3.2,5.5,7.4,10.4,11.6,15.2c10.1,11.2,21.1,21.5,32.9,30.9
		c5.7,4.6,12.3,7.9,19,10.9c7.1,3.3,14.4,6.2,21.8,8.5c3.4,1.1,6.8,2.3,10.3,2.6c3.6,0.3,6.7-0.6,9.8-2.4c1.4-0.8,2.9-1.2,4.5-1.6
		s3.3-0.9,5-1c0.8-0.1,1.6-0.1,2.4-0.2c0.9-0.2,1.7-0.7,2.5-1.1c1.7-0.9,3.5-1.8,5.2-2.8c6.8-3.6,13.5-7.4,19.7-12.1
		c3.1-2.3,6-4.7,9.1-7.1c1.5-1.2,2.9-2.1,4.7-2.9c1.7-0.8,3.3-1.7,4.9-2.5c1.5-0.8,3.1-1.7,4.4-2.8c1.4-1.1,2.6-2.4,4-3.5
		c3.1-2.6,6.4-4.9,9.6-7.3c6.4-4.8,12.8-9.9,19.4-14.4c3.2-2.2,6.5-4.2,9.7-6.6c3-2.2,5.7-4.9,8.5-7.4c5.9-5.2,12.8-9.1,18.9-14
		c3-2.3,5.8-4.8,8.8-7c3.2-2.4,6.5-4.8,9.8-7.2c6.4-4.8,13-9.5,19.1-14.6c12.3-10.4,24.8-20.4,37.4-30.5c6.1-5,12.3-9.9,18.5-14.8
		c3-2.3,6-4.7,8.8-7.2c2.4-2.1,4.6-4.3,7-6.5C596.3,114.7,599.7,110.8,598.6,105.2C598.2,102.9,600.1,112.8,598.6,105.2z"/>
	<path class="st0" d="M111.3,415.2c-3.9,0.8-7.8,2.1-11.4-0.4c-1.6-1.2-2.9-2.8-4.1-4.4s-2.3-3.4-3.1-5.2c-0.8-1.8-1.3-3.8-1.5-5.8
		c-0.2-1.5-1-2.5-2.3-3.2c-3.6-1.8-7.5-0.6-11,0.8c-9.8,3.7-19.6,7.4-29.4,11.1c-4.8,1.8-9.7,3.7-14.5,5.5
		c-4.5,1.7-9.1,3.2-13.4,5.3c-2.1,1.1-4.1,2.1-6.6,2.1c-2.1,0-4.1-0.7-5.9-1.7c-3.2-1.8-6.3-4.4-7.5-7.9c-1.3-3.7-0.1-7.6,2.5-10.3
		c2.8-2.9,6.7-3.6,10.2-5.6c3.5-1.9,6.1-4.6,8.5-7.7c1.2-1.6,3-2.8,4.8-3.6c1.9-0.8,3.9-0.8,5.9-1.4c3.7-1.1,7-3.3,10.2-5.6
		c3.4-2.5,6.8-4.8,10.4-7c8.7-5.4,17.3-11,25.8-16.6c4.2-2.8,8.5-5.4,12.5-8.5c1.8-1.4,3.6-3,5.4-4.4c1.6-1.2,3.1-2.6,5.1-3
		c0.7-0.1,1.5-0.3,2.2,0s1.4,1,2.1,1.4c1.4,0.9,2.8,1.7,4.1,2.6c2.9,1.8,5.5,4,6.9,7.2c0.3,0.6,0.3,1.5,0.8,2
		c0.4,0.4,1.2,0.6,1.8,0.7c0.7,0.1,1.5,0.2,2.2,0.2c1-0.1,2-0.7,3-1.2c4.7-2.1,9.3-4.3,13.9-6.6c9.3-4.5,18.6-9,27.9-13.6
		c4.7-2.3,9.3-4.6,14-6.9c4.4-2.2,8.5-4.7,12.7-7.2c3-1.8,6.4-4.2,10.1-3.8c3.7,0.4,6.8,3.3,9.3,5.9c2.8,2.9,5.5,6.8,4.7,11.1
		c-0.7,4-4.7,6.7-7.9,8.8c-7.9,5.2-16.6,9.1-24.2,14.7c-8.2,6-16.3,12.2-24.2,18.5s-15.6,12.7-23.2,19.3c-3.8,3.4-7.6,6.8-11.4,10.2
		c-1.7,1.5-3.7,2.9-4.9,4.8c-1.1,1.7-1.8,3.7-2.8,5.6c-0.7,1.3-1.5,2.6-2.8,3.4C114.5,415.7,112.8,415.6,111.3,415.2
		C110,415.4,115.2,416.3,111.3,415.2z"/>
	<path class="st0" d="M209.8,289.3c-4.2-0.4-8.4-1-12.7-1.4c-4.2-0.4-8.4-0.3-12.7,0c-4.2,0.3-8.3,0.8-12.5,1.3
		c-4,0.5-8.1,1.2-12.2,1.3c-0.7,0-0.9,0.6-1.4,1.1c-0.5,0.6-1.1,1.1-1.7,1.6c-1.1,0.9-2.4,1.5-3.7,2.1c-2.6,1.2-5.4,1.9-8.1,3
		c-2.9,1.2-5.3,3-7.1,5.7c-1.8,2.5-3,5.3-5.7,7c-2.2,1.4-5,2.2-7.7,1.9c-3.1-0.3-4.8-2.6-7.1-4.4c-5.5-4.2-12.2-6.3-18.9-8
		c-7.4-1.8-14.8-3.8-22.5-3.7c-6,0.1-11.7-1.6-15.9-6.1c-0.5-0.6-1-1.1-1.5-1.7s-0.9-1.6-1.6-2c-0.6-0.4-1.4-0.5-2-0.7
		c-0.7-0.3-1.3-0.6-2-1.1c-2.1-1.5-3.4-3.8-4-6.3c-0.7-2.6-1-5.6-0.5-8.3c0.6-3.2,2.3-6.1,4.6-8.3c2.1-2,4.9-3.9,7.9-4.2
		c3.6-0.4,7.2,1.3,10.6,2.3c7.7,2.2,15.7,3.7,23.8,4.1c4.3,0.2,8.6,0.1,12.8,0.1c4.1,0,8.2,0.2,12.3-0.1c1.6-0.1,2.7-0.5,3.7-1.7
		c1-1.3,2.1-2.3,3.6-3c2.6-1.3,5.6-1.3,8.4-1.2c2.5,0.1,5.3,0.6,7.5-1c1.1-0.9,1.7-2.1,2.4-3.3c0.6-1.2,1.4-2.2,2.4-3.1
		c5-4.4,12.1-2.9,16.9,1c2.8,2.3,6.2,3.6,9.7,4.7c3.7,1.2,7.5,2.1,11.4,2.6c4.1,0.5,8.2,0.4,12.2-0.4c1.6-0.3,2.6,0.4,3.8,1.3
		c1.3,1,2.6,1.9,3.9,2.8c1.3,1,2.6,2.1,4.3,2.3c1.5,0.2,2.9,0.4,4.2,1c2.8,1.3,4,3.8,4.6,6.8c0.7,3.6,1,7.5,0.4,11.1
		c-0.3,1.7-0.9,3.3-2.4,4.2C215.2,289.7,212.3,289.5,209.8,289.3C203,288.6,217.8,290,209.8,289.3z"/>
	<path class="st0" d="M160.3,439.7c-0.8-2.8-0.5-5.7,0.7-8.3c1.4-3,3.8-5.2,6.1-7.5c4.5-4.3,6.8-10.3,8.7-16.1c1-3,2-6.1,3.1-9.1
		c1.2-3.6,2.2-7.2,3.4-10.8c0.9-2.7,1.8-5.8,3.8-7.9c1.7-1.8,4.1-2.1,6.4-1.5c1.4,0.3,2.8,0.9,4.3,1.2c1.4,0.3,2.9,0.4,4.3,0.3
		c3.2-0.3,6-1.7,8.3-3.8c5.7-5.1,11.7-9.8,17.9-14.4c6.1-4.6,12.6-8.9,18.5-13.8c1.4-1.2,2.7-2.4,3.8-3.8c1-1.3,1.8-2.7,2.9-3.9
		c2-2.2,4.4-4,7-5.6c2.6-1.5,5.3-2.8,7.9-4.2c2.3-1.2,4.2-2.5,6.8-2.1c2.7,0.4,5.1,1.9,7.2,3.6c2.3,2,4.1,4.3,4.6,7.3
		c0.5,2.8,0,5.8-1.5,8.2c-0.9,1.5-2.2,2.9-3.3,4.3c-1.2,1.6-2.5,3.1-3.7,4.7c-5,6.3-10,12.6-14.9,18.9c-4.9,6.2-9.8,12.3-14.6,18.5
		c-4,5.2-7.5,10.7-9.2,17.1c-0.7,2.6-1.9,4.8-4.1,6.5c-2.1,1.5-4.7,2.3-7.3,2.3c-1.4,0-2.8-0.3-4.1-0.7c-1.3-0.4-2.3-1.1-3.7-1.2
		c-1.3-0.1-2.6,0-3.8,0.4c-1.4,0.5-2.4,1.8-3.4,2.8c-5.6,5.5-11,11.1-16.3,16.8c-1.3,1.4-2.6,2.8-3.9,4.2c-1.2,1.3-2.6,2.5-3.3,4
		c-1.3,2.6-1.3,5.7-2.9,8.3c-3,4.7-9.4,7.9-15,6.7c-5.4-1.2-10.3-6.6-10.6-12.2C160.1,445.8,160.3,442.8,160.3,439.7
		C158.6,434.1,160.3,443.6,160.3,439.7z"/>
	<path class="st0" d="M383.3,139.1c1.9-8.1,2.2-16.5,7-23.5s11.8-12.4,18.9-16.8c3.7-2.3,7.5-4.3,11.3-6.4c4-2.2,8-4.6,11.9-7
		c8-4.9,15.8-10,24.1-14.3c4.2-2.2,8.4-4.3,12.6-6.4c3.7-1.9,7.9-3.6,11.1-6.3c1.5-1.2,2.5-3,3.9-4.3c1.2-1.1,2.7-1.9,4.3-2.3
		c1.5-0.4,3.1-0.5,4.7-0.4c1.8,0.1,3.7,0.7,5.5,0.6c1-0.1,1.7-0.5,2.6-0.9c1.1-0.5,2.2-0.9,3.3-1.2c1.8-0.5,3.8-0.9,5.7-0.9
		c3.8-0.1,7.5,0.8,10.9,2.4c3.6,1.7,6.8,4.1,9.8,6.7c3.5,3,6.9,6.2,10.3,9.4c6.5,6.3,12.9,12.9,20,18.5c3.1,2.5,6.5,4.4,9,7.5
		c2.1,2.5,3.5,5.4,4.4,8.5c0.9,3.3,1,6.8,0.8,10.2c-0.3,3.7-1.3,6.9-3.7,9.8c-2.3,2.7-5.1,4.8-7.9,7c-3.8,3-7.6,5.9-11.5,8.9
		c-7.6,5.8-15.1,11.6-22.8,17.3c-3.7,2.7-7.4,5.3-11.3,7.5c-3.9,2.3-7.9,4.5-11.7,7c-4,2.7-8,5.4-12,8.1c-3.7,2.6-7.3,5.3-10.9,7.9
		c-3.8,2.7-7.7,5.1-11.7,7.6c-3.9,2.5-7.8,4.9-11.8,7.2c-2,1.2-4.1,2.3-6.2,3.3c-1.8,0.9-3.6,1.9-5.6,2.4c-3.6,0.9-7.3,0.4-10.5-1.2
		c-3.6-1.8-6-4.8-9.1-7.2c-1.7-1.3-3.4-2.4-5-3.8c-1.7-1.4-3.1-3.2-4.6-4.8c-6.2-6.9-12.4-13.9-18.2-21.1c-2.8-3.5-5.7-6.9-8.9-10
		c-2.6-2.5-4.8-5.3-6.2-8.6C384.3,146.2,383.5,142.6,383.3,139.1C385,132,383.8,146.8,383.3,139.1z M447.7,180.6
		c2.6-0.7,5.3-1.2,7.9-2c2.6-0.9,5.2-2.1,7.6-3.4c4.8-2.7,9.2-6,13.8-9.1c5-3.3,10.3-6,15.1-9.5c5.1-3.7,9.9-7.7,14.8-11.6
		c10.9-8.6,22.2-16.7,33.2-25.1c1.4-1,2.7-2.1,4.1-3.1c1.3-1,2.7-1.9,3.7-3.1c1.5-1.7,2.1-4,1.2-6.2c-0.5-1.2-1.3-2.1-2.3-2.9
		c-1.3-1.1-2.5-2.2-3.8-3.3c-2.6-2.3-5.1-4.5-7.6-6.8c-4.7-4.2-9.3-8.5-13.7-12.9c-3.2-3.2-6.8-6.6-11.5-7.3
		c-6.1-0.9-11.5,2.8-16.5,5.9c-5.3,3.2-10.8,6.4-15.7,10.3c-4.1,3.3-7.9,8-13.8,7c-5.8-1-10.3,1.9-14.6,5.4
		c-10.4,8.4-21.5,15.9-32.4,23.8c-3.4,2.4-8.5,5.6-8.9,10.3c-0.4,4.9,4.7,8.9,7.5,12.3c2.1,2.5,4.1,5.2,6,7.8
		c1.8,2.6,3.5,5.3,5.4,7.8c3.5,4.5,7.9,8.2,12.6,11.4C442.4,177.8,445,179.2,447.7,180.6C449.2,180.2,446.4,179.9,447.7,180.6z"/>
	<path class="st0" d="M390.9,219.2c3.4,0.2,6.9-0.1,10.3,0.4c1.4,0.2,2.9,0.5,3.9,1.4s1.7,2,2.3,3.2c1.2,2.2,2,4.5,2.3,7
		c0.2,2.4,0,4.9-0.6,7.2c-0.5,2.1-1.3,4.2-2.7,5.8c-1.5,1.7-3.5,2.2-5.7,2.5c-2.9,0.4-5.9,0.4-8.7-0.4c-2.5-0.7-3.9-2-4.9-4.4
		c-1.1-2.7-1.6-5.9-1.6-8.8c0-3.9,1.7-7.6,2.5-11.3c-1.8,0.6-3.4,1.2-5.1,2.1c-1.6,0.8-3.2,1.6-5,1.6c-3.1,0.1-6.2-1.2-8.6-3.1
		c-2.4-1.9-4.3-4.6-4.8-7.7c-0.6-4.2-0.1-8.7,0.6-12.9c0.3-1.9,0.5-4,1.5-5.7c0.9-1.6,2.4-2.9,3.9-3.9c3.6-2.2,7.9-3.1,11.9-4.4
		c1.4-0.4,2.6-0.4,3.9,0.4c1,0.7,1.9,1.5,2.7,2.4c1.9,2.1,3.6,4.5,4.8,7c0.6,1.1,1.1,2.3,1.3,3.6c0.3,1.9,0.1,4.1,0.1,6
		c0,2.4-0.3,4.7-1.3,6.9C393.1,215.8,391.9,217.4,390.9,219.2C395.2,219.4,392,217.2,390.9,219.2z"/>
	<path class="st0" d="M369.3,172.9c-1.5,4.6-2.3,9.7-4.8,13.9c-0.9,1.6-2.4,2.9-4.2,3.4c-2.2,0.6-4.1-0.1-6.2-0.6
		c-4.3-1.1-8.8-1.4-12.7-3.5c-3.7-2-6.7-5.6-8.2-9.6s-1.8-8.9-0.7-13.1c1.1-4.1,3.6-7.5,6-10.9c1.2-1.7,2.2-3.7,4.1-4.8
		c1.5-0.9,3.3-0.9,5-0.6c1.8,0.3,3.4,0.9,5.1,1.4c1.6,0.4,3,1.1,4.4,2c3.6,2.5,6.4,6.1,8.6,9.9C367.5,164.2,369.3,168.6,369.3,172.9
		C368,176.9,369.4,164,369.3,172.9z"/>
	<path class="st0" d="M307.3,221.7c-0.1-3.4,0.9-6.7,3.9-8.6c1.7-1.1,3.7-1.6,5.6-2.2c2.3-0.7,4.6-1.5,7-1.8c4-0.6,8.2,0,11.9,1.7
		c1.9,0.9,3.7,2.1,5.3,3.4c1.1,0.9,1.9,1.7,2.4,3c1.1,2.8,1.4,6,1.3,8.9c0,2.8-0.3,6.1-1.7,8.6c-1.7,3-4.7,5.7-7.7,7.2
		c-1.7,0.9-3.6,1.4-5.5,1.4c-2.2,0-4-0.8-6-1.5c-4.2-1.4-8.7-2.2-11.4-6c-2.9-4.1-4.2-9.1-6.2-13.6
		C306.5,222.1,306.9,221.9,307.3,221.7C307.2,216.7,306.9,221.9,307.3,221.7z"/>
	<path class="st0" d="M287.8,198.2c-0.2-6.7,2.9-13,8.6-16.7c2.6-1.7,5.6-2.7,8.7-3c1.7-0.2,3.5-0.3,5.2,0.2s3,2.2,4,3.5
		c4.2,5.4,5.3,12.8,2.5,19c-2.7,6-8.4,10.1-15,10.5c-3.4,0.2-6.9-0.7-9.6-2.8c-1.4-1.1-2.7-2.5-3.4-4.1
		C288,202.8,288.2,200.4,287.8,198.2C287.4,185.6,288.3,200.7,287.8,198.2z"/>
	<path class="st0" d="M350.8,271.4c-5.9,1.2-11.9-1.8-14.3-7.4c-2.4-5.7,0.1-12.6,4-17c2-2.3,4.9-4.4,8.1-4.3
		c12.2,0.5,16.4,2.8,17.5,13.8C367.1,266.2,361.7,271.1,350.8,271.4C341.8,273.2,361.7,271.1,350.8,271.4z"/>
	<path class="st0" d="M279.1,237.4c0.4-5.2,3.3-10.9,6.3-10.8c2.5,0,4.9,1,6.7,2.8c1.8,1.8,2.7,4,3.5,6.4c1.6,4.6,3.6,9.4,8.3,11.5
		c1,0.5,2.2,0.6,2.9,1.5c0.6,0.8,1.1,1.8,1.2,2.8c0.1,1.1-0.8,2.2-1.4,3.1c-0.7,1.2-1.6,2.4-2.7,3.4c-4.2,3.7-10.5,2.1-14.3-1.3
		c-2.7-2.5-4.7-5.9-6.6-9c-1.1-1.7-2.1-3.4-3.1-5.2C279.2,240.9,279.4,239.2,279.1,237.4C279.5,232.2,279.3,239,279.1,237.4z"/>
</g>
</svg>
